<svg width="100" height="100" viewBox="0 0 100 100" fill="none" xmlns="http://www.w3.org/2000/svg">
<rect x="2" y="2" width="96" height="96" rx="13" stroke="#022F84" stroke-width="4"/>
<path d="M9 2H53.0336V52.1985H2V9C2 5.134 5.13401 2 9 2Z" stroke="#022F84" stroke-width="4"/>
<path d="M2 51.6183H53.0336V98H7C4.23858 98 2 95.7614 2 93V51.6183Z" stroke="#022F84" stroke-width="4"/>
<rect x="4.32568" y="4.43903" width="91.3488" height="91.1219" rx="13" stroke="white" stroke-width="4"/>
<path d="M11.3257 4.43903H52.7995V51.9937H4.32568V11.439C4.32568 7.57303 7.45969 4.43903 11.3257 4.43903Z" stroke="white" stroke-width="4"/>
<path d="M4.32568 51.6369H52.7995V95.561H9.32568C6.56426 95.561 4.32568 93.3224 4.32568 90.561V51.6369Z" stroke="white" stroke-width="4"/>
</svg>
